<?xml version="1.0" encoding="utf-8"?>
<!-- Generator: Adobe Illustrator 22.0.1, SVG Export Plug-In . SVG Version: 6.00 Build 0)  -->
<svg version="1.1" id="Layer_1" xmlns="http://www.w3.org/2000/svg" xmlns:xlink="http://www.w3.org/1999/xlink" x="0px" y="0px"
	 viewBox="0 0 100 100" style="enable-background:new 0 0 100 100;" xml:space="preserve">
<style type="text/css">
	.st0{fill:#FDFFFD;}
</style>
<g>
	<path class="st0" d="M48.2,15.7c0.5-0.3,1-0.7,1.5-1c0.4,0.2,1,0.7,1.4,0.9c-0.5,0.4-0.9,0.7-1.4,1.1
		C49.4,16.4,48.6,15.9,48.2,15.7z"/>
	<path class="st0" d="M26.3,20.4c0.6-0.4,1.2-0.9,1.8-1.3c0.2,0.3,0.5,1,0.7,1.3c-0.2,0.3-0.5,1-0.7,1.3
		C27.5,21.3,26.9,20.9,26.3,20.4z"/>
	<path class="st0" d="M19.6,61.3c9.9-13.5,20-26.8,29.8-40.4c13.3,18.3,26.9,36.4,40.3,54.6c1.7,2.5,3.8,4.7,5.2,7.4
		c-2-1.7-3.3-4-4.9-6.1C80,63.2,70,49.5,59.7,36c10.1,15.3,20.4,30.5,30.6,45.8c-5.1,0-10.3,0-15.4,0c0.5-7.8-1.4-15.8-6.1-22.1
		c-4.2-5.8-11-10-18.3-10.3c-7.2-0.4-14.1,3.1-18.7,8.5c-5.7,6.5-8.2,15.4-7.6,24c-5.1,0-10.3,0-15.4,0c10.2-15.3,20.6-30.6,30.8-46
		C29.1,49.4,19,63.2,8.7,77c-1.6,2-2.8,4.3-4.9,5.9C8.8,75.5,14.4,68.5,19.6,61.3z"/>
	<path class="st0" d="M59,23.9c0.5-0.5,0.9-1,1.4-1.4c0.5,0.4,0.9,0.9,1.4,1.4c-0.5,0.4-1,0.9-1.4,1.4C59.9,24.8,59.5,24.4,59,23.9z
		"/>
	<path class="st0" d="M36.4,25.2c0.4-0.3,1.2-0.8,1.5-1.1c0.5,0.4,0.9,0.7,1.4,1.1c-0.3,0.2-1,0.7-1.4,0.9
		C37.5,25.9,36.9,25.5,36.4,25.2z"/>
	<path class="st0" d="M29.5,32.2c0.4,1.1,0.5,2.4,1.2,3.4c1,0.7,2.2,1,3.3,1.5c-1.1,0.5-2.3,0.8-3.3,1.5c-0.8,0.9-0.9,2.2-1.3,3.3
		c-0.3-1.1-0.6-2.2-0.9-3.3c-1.2-0.6-2.4-1.1-3.7-1.6c1.2-0.5,2.5-0.8,3.5-1.7C28.9,34.3,29.2,33.3,29.5,32.2z"/>
	<path class="st0" d="M68.9,35.3c0.5-1,0.7-2.1,1.1-3.2c0,2.8,2.1,4.3,4.6,4.9c-2.5,0.5-4.6,2-4.7,4.7c-0.1-2.7-2.1-4.3-4.6-4.8
		C66.6,36.6,67.9,36.2,68.9,35.3z"/>
	<path class="st0" d="M78.2,47.2c0.5-0.6,1.1-1.2,1.6-1.8c0.3,0.6,0.5,1.2,0.8,1.9c-0.3,0.3-0.5,0.7-0.8,1
		C79.4,48,78.6,47.5,78.2,47.2z"/>
	<path class="st0" d="M19.5,45.7c0.6,0.5,1.3,0.9,1.9,1.4c-0.4,0.3-1.3,0.9-1.8,1.2c-0.2-0.2-0.6-0.7-0.8-0.9
		C19.1,46.8,19.3,46.3,19.5,45.7z"/>
	<path class="st0" d="M49.2,51.1c0.7,3.5,0.3,7.2,0.2,10.8C48.8,58.3,49.1,54.6,49.2,51.1z"/>
	<path class="st0" d="M39.3,53.8c2.7,3.4,4.2,7.6,6,11.5C42.7,61.8,41.2,57.7,39.3,53.8z"/>
	<path class="st0" d="M15.1,58.9c0.5-0.7,1.1-1.4,1.6-2.1c0.4,0.7,0.9,1.4,1.3,2C17,59.1,16,59.1,15.1,58.9z"/>
	<path class="st0" d="M81.3,58.5c0.6-0.4,1.1-0.8,1.7-1.1c0.5,0.4,0.9,0.8,1.4,1.1c-0.4,0.2-1.1,0.6-1.4,0.8
		C82.4,59,81.8,58.8,81.3,58.5z"/>
	<path class="st0" d="M37.9,62.3c1.7,0.9,3.1,2.2,4,3.9C40.4,65.1,39.1,63.8,37.9,62.3z"/>
	<path class="st0" d="M57.8,65.8c1-1.4,2.2-2.7,3.7-3.5C60.5,63.7,59.4,65,57.8,65.8z"/>
	<path class="st0" d="M30.2,62.9c2.7,1.1,4.9,3,7.3,4.5c1.8,1.2,3.7,2.2,5.1,3.9C38.3,68.7,34,66,30.2,62.9z"/>
	<path class="st0" d="M56.1,71.1c3.9-3,8.1-5.8,12.4-8.2c-1.4,1.7-3.3,2.7-5.1,3.9C61.1,68.2,58.8,70.1,56.1,71.1z"/>
	<path class="st0" d="M48.7,68.9c0.3-1.6,0.8-3.2,1.4-4.7c1.4,3.7,3.6,7,4.8,10.8c-0.7,2.9-3,5.1-5.8,6c-3.7-1.8-4.5-6-5-9.7
		c0.3,0.3,1,1,1.3,1.4c0.6-2.1,1.3-4.2,1.9-6.4C47.7,67.1,48.2,68,48.7,68.9z"/>
	<path class="st0" d="M56.5,78.4c0.3,0.8,0.6,1.6,0.9,2.4c-1.5,0.8-3,1.8-4.5,2.8c1.5,0.7,3,1.4,4.5,2.1c-0.6,1.1-1.1,2.2-1.6,3.4
		c-2.1-1.3-4.2-2.5-6.4-3.7c-2.2,1.2-4.3,2.4-6.4,3.7c-0.5-1.2-1.1-2.2-1.6-3.3c1.6-0.7,3.1-1.5,4.7-2.2c-1.6-0.9-3.2-1.9-4.8-2.8
		c0.5-0.6,0.8-1.7,1.7-1.8c2.2,0.8,4.3,2,6.5,3C51.8,80.8,54.2,79.7,56.5,78.4z"/>
	<path class="st0" d="M33.1,81.6c2-1.4,4.3-2.3,6.6-2.9C37.8,80.2,35.4,81,33.1,81.6z"/>
	<path class="st0" d="M59.3,78.8c2.3,0.6,4.6,1.4,6.5,2.9C63.5,81,61.2,80.2,59.3,78.8z"/>
</g>
</svg>
