<?xml version="1.0" encoding="utf-8"?>
<!-- Generator: Adobe Illustrator 22.0.1, SVG Export Plug-In . SVG Version: 6.00 Build 0)  -->
<svg version="1.1" id="Layer_1" xmlns="http://www.w3.org/2000/svg" xmlns:xlink="http://www.w3.org/1999/xlink" x="0px" y="0px"
	 viewBox="0 0 113.1 133" style="enable-background:new 0 0 113.1 133;" xml:space="preserve">
<style type="text/css">
	.st0{fill:#FFFDFD;}
</style>
<g>
	<path class="st0" d="M54.7,2.4c0.5-0.3,1-0.7,1.5-1c0.4,0.2,1,0.7,1.4,0.9c-0.5,0.4-0.9,0.7-1.4,1.1C55.9,3.1,55.1,2.6,54.7,2.4z"
		/>
	<path class="st0" d="M32.8,7.1c0.6-0.4,1.2-0.9,1.8-1.3c0.2,0.3,0.5,1,0.7,1.3c-0.2,0.3-0.5,1-0.7,1.3C34,8,33.4,7.6,32.8,7.1z"/>
	<path class="st0" d="M26.1,48c9.9-13.5,20-26.8,29.8-40.4C69.2,25.9,82.8,44,96.2,62.2c1.7,2.5,3.8,4.7,5.2,7.4
		c-2-1.7-3.3-4-4.9-6.1c-10-13.6-20-27.3-30.3-40.8C76.3,38,86.6,53.2,96.8,68.5c-5.1,0-10.3,0-15.4,0c0.5-7.8-1.4-15.8-6.1-22.1
		c-4.2-5.8-11-10-18.3-10.3c-7.2-0.4-14.1,3.1-18.7,8.5c-5.7,6.5-8.2,15.4-7.6,24c-5.1,0-10.3,0-15.4,0c10.2-15.3,20.6-30.6,30.8-46
		C35.6,36.1,25.5,49.9,15.2,63.7c-1.6,2-2.8,4.3-4.9,5.9C15.3,62.2,20.9,55.2,26.1,48z"/>
	<path class="st0" d="M65.5,10.6c0.5-0.5,0.9-1,1.4-1.4c0.5,0.4,0.9,0.9,1.4,1.4c-0.5,0.4-1,0.9-1.4,1.4
		C66.4,11.5,66,11.1,65.5,10.6z"/>
	<path class="st0" d="M42.9,11.9c0.4-0.3,1.2-0.8,1.5-1.1c0.5,0.4,0.9,0.7,1.4,1.1c-0.3,0.2-1,0.7-1.4,0.9
		C44,12.6,43.4,12.2,42.9,11.9z"/>
	<path class="st0" d="M36,18.9c0.4,1.1,0.5,2.4,1.2,3.4c1,0.7,2.2,1,3.3,1.5c-1.1,0.5-2.3,0.8-3.3,1.5c-0.8,0.9-0.9,2.2-1.3,3.3
		c-0.3-1.1-0.6-2.2-0.9-3.3c-1.2-0.6-2.4-1.1-3.7-1.6c1.2-0.5,2.5-0.8,3.5-1.7C35.4,21,35.7,20,36,18.9z"/>
	<path class="st0" d="M75.4,22c0.5-1,0.7-2.1,1.1-3.2c0,2.8,2.1,4.3,4.6,4.9c-2.5,0.5-4.6,2-4.7,4.7c-0.1-2.7-2.1-4.3-4.6-4.8
		C73.1,23.3,74.4,22.9,75.4,22z"/>
	<path class="st0" d="M84.7,33.9c0.5-0.6,1.1-1.2,1.6-1.8c0.3,0.6,0.5,1.2,0.8,1.9c-0.3,0.3-0.5,0.7-0.8,1
		C85.9,34.7,85.1,34.2,84.7,33.9z"/>
	<path class="st0" d="M26,32.4c0.6,0.5,1.3,0.9,1.9,1.4c-0.4,0.3-1.3,0.9-1.8,1.2c-0.2-0.2-0.6-0.7-0.8-0.9
		C25.6,33.5,25.8,33,26,32.4z"/>
	<path class="st0" d="M55.7,37.8c0.7,3.5,0.3,7.2,0.2,10.8C55.3,45,55.6,41.3,55.7,37.8z"/>
	<path class="st0" d="M45.8,40.5c2.7,3.4,4.2,7.6,6,11.5C49.2,48.5,47.7,44.4,45.8,40.5z"/>
	<path class="st0" d="M21.6,45.6c0.5-0.7,1.1-1.4,1.6-2.1c0.4,0.7,0.9,1.4,1.3,2C23.5,45.8,22.5,45.8,21.6,45.6z"/>
	<path class="st0" d="M87.8,45.2c0.6-0.4,1.1-0.8,1.7-1.1c0.5,0.4,0.9,0.8,1.4,1.1c-0.4,0.2-1.1,0.6-1.4,0.8
		C88.9,45.7,88.3,45.5,87.8,45.2z"/>
	<path class="st0" d="M44.4,49c1.7,0.9,3.1,2.2,4,3.9C46.9,51.8,45.6,50.5,44.4,49z"/>
	<path class="st0" d="M64.3,52.5c1-1.4,2.2-2.7,3.7-3.5C67,50.4,65.9,51.7,64.3,52.5z"/>
	<path class="st0" d="M36.7,49.6c2.7,1.1,4.9,3,7.3,4.5c1.8,1.2,3.7,2.2,5.1,3.9C44.8,55.4,40.5,52.7,36.7,49.6z"/>
	<path class="st0" d="M62.6,57.8c3.9-3,8.1-5.8,12.4-8.2c-1.4,1.7-3.3,2.7-5.1,3.9C67.6,54.9,65.3,56.8,62.6,57.8z"/>
	<path class="st0" d="M55.2,55.6c0.3-1.6,0.8-3.2,1.4-4.7c1.4,3.7,3.6,7,4.8,10.8c-0.7,2.9-3,5.1-5.8,6c-3.7-1.8-4.5-6-5-9.7
		c0.3,0.3,1,1,1.3,1.4c0.6-2.1,1.3-4.2,1.9-6.4C54.2,53.8,54.7,54.7,55.2,55.6z"/>
	<path class="st0" d="M63,65.1c0.3,0.8,0.6,1.6,0.9,2.4c-1.5,0.8-3,1.8-4.5,2.8c1.5,0.7,3,1.4,4.5,2.1c-0.6,1.1-1.1,2.2-1.6,3.4
		c-2.1-1.3-4.2-2.5-6.4-3.7c-2.2,1.2-4.3,2.4-6.4,3.7c-0.5-1.2-1.1-2.2-1.6-3.3c1.6-0.7,3.1-1.5,4.7-2.2c-1.6-0.9-3.2-1.9-4.8-2.8
		c0.5-0.6,0.8-1.7,1.7-1.8c2.2,0.8,4.3,2,6.5,3C58.3,67.5,60.7,66.4,63,65.1z"/>
	<path class="st0" d="M39.6,68.3c2-1.4,4.3-2.3,6.6-2.9C44.3,66.9,41.9,67.7,39.6,68.3z"/>
	<path class="st0" d="M65.8,65.5c2.3,0.6,4.6,1.4,6.5,2.9C70,67.7,67.7,66.9,65.8,65.5z"/>
</g>
<g>
	<path class="st0" d="M5.2,94.5V83.9h2.3v8.8h4.3v1.9H5.2V94.5z"/>
	<path class="st0" d="M18.6,94.5l-0.4-1.1h-0.1c-0.4,0.5-0.8,0.8-1.2,1c-0.4,0.2-0.9,0.3-1.5,0.3c-0.8,0-1.4-0.2-1.8-0.7
		c-0.4-0.4-0.7-1.1-0.7-1.9c0-0.9,0.3-1.5,0.9-1.9c0.6-0.4,1.5-0.6,2.7-0.7h1.4v-0.4c0-0.8-0.4-1.2-1.3-1.2c-0.7,0-1.4,0.2-2.3,0.6
		L13.6,87c0.9-0.5,2-0.7,3.1-0.7s1.9,0.2,2.5,0.7s0.9,1.2,0.9,2.2v5.4h-1.5V94.5z M17.9,90.7H17c-0.6,0-1.1,0.1-1.4,0.3
		c-0.3,0.2-0.5,0.5-0.5,1c0,0.6,0.4,0.9,1.1,0.9c0.5,0,0.9-0.1,1.2-0.4c0.3-0.3,0.5-0.7,0.5-1.2C17.9,91.3,17.9,90.7,17.9,90.7z"/>
	<path class="st0" d="M28.1,92.1c0,0.8-0.3,1.5-0.9,1.9s-1.4,0.7-2.6,0.7c-0.6,0-1.1,0-1.5-0.1s-0.8-0.2-1.2-0.4v-1.8
		c0.4,0.2,0.9,0.4,1.4,0.5s1,0.2,1.4,0.2c0.8,0,1.2-0.2,1.2-0.7c0-0.2-0.1-0.3-0.2-0.4s-0.3-0.2-0.6-0.4c-0.3-0.1-0.6-0.3-1-0.5
		c-0.6-0.3-1.1-0.5-1.4-0.7s-0.5-0.5-0.6-0.8s-0.2-0.6-0.2-1.1c0-0.7,0.3-1.3,0.8-1.7c0.6-0.4,1.4-0.6,2.4-0.6s1.9,0.2,2.9,0.6
		l-0.7,1.6c-0.4-0.2-0.8-0.3-1.1-0.4c-0.4-0.1-0.7-0.2-1.1-0.2c-0.7,0-1,0.2-1,0.5c0,0.2,0.1,0.4,0.3,0.5s0.7,0.4,1.4,0.6
		c0.6,0.3,1.1,0.5,1.4,0.7s0.5,0.5,0.7,0.8C28,91.3,28.1,91.7,28.1,92.1z"/>
	<path class="st0" d="M38.4,94.5l-2.6-8.4h-0.1c0.1,1.7,0.1,2.8,0.1,3.4v5h-2V83.9h3.1l2.5,8.1l0,0l2.7-8.1h3.1v10.6h-2v-5
		c0-0.2,0-0.5,0-0.8s0-1.1,0.1-2.5h-0.1l-2.7,8.3H38.4z"/>
	<path class="st0" d="M52.9,94.5l-0.4-1.1h-0.1c-0.4,0.5-0.8,0.8-1.2,1s-0.9,0.3-1.5,0.3c-0.8,0-1.4-0.2-1.8-0.7
		c-0.4-0.4-0.7-1.1-0.7-1.9c0-0.9,0.3-1.5,0.9-1.9c0.6-0.4,1.5-0.6,2.7-0.7h1.4v-0.4c0-0.8-0.4-1.2-1.3-1.2c-0.7,0-1.4,0.2-2.3,0.6
		L47.9,87c0.9-0.5,2-0.7,3.1-0.7s1.9,0.2,2.5,0.7s0.9,1.2,0.9,2.2v5.4h-1.5V94.5z M52.3,90.7h-0.9c-0.6,0-1.1,0.1-1.4,0.3
		c-0.3,0.2-0.5,0.5-0.5,1c0,0.6,0.4,0.9,1.1,0.9c0.5,0,0.9-0.1,1.2-0.4s0.5-0.7,0.5-1.2C52.3,91.3,52.3,90.7,52.3,90.7z"/>
	<path class="st0" d="M61.3,86.2c0.3,0,0.6,0,0.8,0.1l-0.2,2.1c-0.2,0-0.4-0.1-0.7-0.1c-0.7,0-1.3,0.2-1.7,0.5
		c-0.4,0.4-0.6,0.9-0.6,1.5v4.1h-2.2v-8.1h1.7l0.3,1.4h0.1c0.3-0.5,0.6-0.8,1-1.1C60.3,86.4,60.8,86.2,61.3,86.2z"/>
	<path class="st0" d="M68.7,94.5l-0.4-1.1h-0.1c-0.4,0.5-0.8,0.8-1.2,1c-0.4,0.2-0.9,0.3-1.5,0.3c-0.8,0-1.4-0.2-1.8-0.7
		c-0.4-0.4-0.7-1.1-0.7-1.9c0-0.9,0.3-1.5,0.9-1.9c0.6-0.4,1.5-0.6,2.7-0.7H68v-0.4c0-0.8-0.4-1.2-1.3-1.2c-0.7,0-1.4,0.2-2.3,0.6
		L63.7,87c0.9-0.5,2-0.7,3.1-0.7s1.9,0.2,2.5,0.7s0.9,1.2,0.9,2.2v5.4h-1.5V94.5z M68.1,90.7h-0.9c-0.6,0-1.1,0.1-1.4,0.3
		c-0.3,0.2-0.5,0.5-0.5,1c0,0.6,0.4,0.9,1.1,0.9c0.5,0,0.9-0.1,1.2-0.4c0.3-0.3,0.5-0.7,0.5-1.2C68.1,91.3,68.1,90.7,68.1,90.7z"/>
	<path class="st0" d="M74.5,94.5l-3.1-8.1h2.3l1.6,4.6c0.2,0.6,0.3,1.1,0.3,1.7l0,0c0-0.5,0.1-1,0.3-1.7l1.6-4.6h2.3l-3.1,8.1H74.5z
		"/>
	<path class="st0" d="M80.9,84.3c0-0.7,0.4-1.1,1.2-1.1c0.8,0,1.2,0.4,1.2,1.1c0,0.3-0.1,0.6-0.3,0.8c-0.2,0.2-0.5,0.3-0.9,0.3
		C81.3,85.4,80.9,85,80.9,84.3z M83.3,94.5h-2.2v-8.1h2.2V94.5z"/>
	<path class="st0" d="M87.8,94.5h-2.2V83.2h2.2V94.5z"/>
	<path class="st0" d="M92.4,94.5h-2.2V83.2h2.2V94.5z"/>
	<path class="st0" d="M99.9,94.5l-0.4-1.1h-0.1c-0.4,0.5-0.8,0.8-1.2,1c-0.4,0.2-0.9,0.3-1.5,0.3c-0.8,0-1.4-0.2-1.8-0.7
		c-0.4-0.4-0.7-1.1-0.7-1.9c0-0.9,0.3-1.5,0.9-1.9s1.5-0.6,2.7-0.7h1.4v-0.4c0-0.8-0.4-1.2-1.3-1.2c-0.7,0-1.4,0.2-2.3,0.6L94.9,87
		c0.9-0.5,2-0.7,3.1-0.7s1.9,0.2,2.5,0.7s0.9,1.2,0.9,2.2v5.4h-1.5V94.5z M99.2,90.7h-0.9c-0.6,0-1.1,0.1-1.4,0.3
		c-0.3,0.2-0.5,0.5-0.5,1c0,0.6,0.4,0.9,1.1,0.9c0.5,0,0.9-0.1,1.2-0.4c0.3-0.3,0.5-0.7,0.5-1.2C99.2,91.3,99.2,90.7,99.2,90.7z"/>
	<path class="st0" d="M109.4,92.1c0,0.8-0.3,1.5-0.9,1.9s-1.4,0.7-2.6,0.7c-0.6,0-1.1,0-1.5-0.1s-0.8-0.2-1.2-0.4v-1.8
		c0.4,0.2,0.9,0.4,1.4,0.5s1,0.2,1.4,0.2c0.8,0,1.2-0.2,1.2-0.7c0-0.2-0.1-0.3-0.2-0.4s-0.3-0.2-0.6-0.4c-0.3-0.1-0.6-0.3-1-0.5
		c-0.6-0.3-1.1-0.5-1.4-0.7s-0.5-0.5-0.6-0.8s-0.2-0.6-0.2-1.1c0-0.7,0.3-1.3,0.8-1.7c0.6-0.4,1.4-0.6,2.4-0.6s1.9,0.2,2.9,0.6
		l-0.7,1.6c-0.4-0.2-0.8-0.3-1.1-0.4c-0.4-0.1-0.7-0.2-1.1-0.2c-0.7,0-1,0.2-1,0.5c0,0.2,0.1,0.4,0.3,0.5c0.2,0.1,0.7,0.4,1.4,0.6
		c0.6,0.3,1.1,0.5,1.4,0.7s0.5,0.5,0.7,0.8C109.3,91.3,109.4,91.7,109.4,92.1z"/>
</g>
<g>
	<path class="st0" d="M17.9,109.6c0,1-0.4,1.7-1.1,2.3c-0.7,0.5-1.7,0.8-2.9,0.8c-1.3,0-2.3-0.2-3-0.5v-1.2c0.5,0.2,0.9,0.3,1.5,0.5
		c0.5,0.1,1.1,0.2,1.6,0.2c0.9,0,1.5-0.2,1.9-0.5c0.4-0.3,0.6-0.8,0.6-1.4c0-0.4-0.1-0.7-0.2-0.9c-0.2-0.2-0.4-0.5-0.8-0.7
		c-0.4-0.2-0.9-0.4-1.6-0.7c-1-0.4-1.8-0.8-2.2-1.3c-0.4-0.5-0.7-1.2-0.7-2c0-0.8,0.3-1.5,1-2c0.6-0.5,1.5-0.8,2.5-0.8
		c1.1,0,2.1,0.2,3,0.6l-0.4,1.1c-0.9-0.4-1.8-0.6-2.6-0.6c-0.7,0-1.2,0.1-1.6,0.4c-0.4,0.3-0.6,0.7-0.6,1.2c0,0.4,0.1,0.7,0.2,0.9
		c0.1,0.2,0.4,0.5,0.7,0.7c0.3,0.2,0.8,0.4,1.5,0.7c1.2,0.4,1.9,0.9,2.4,1.3C17.6,108.2,17.9,108.8,17.9,109.6z"/>
	<path class="st0" d="M23.4,112.7c-1.2,0-2.2-0.4-2.9-1.1c-0.7-0.7-1.1-1.8-1.1-3.1c0-1.3,0.3-2.4,1-3.2c0.7-0.8,1.5-1.2,2.6-1.2
		c1,0,1.9,0.3,2.5,1c0.6,0.7,0.9,1.6,0.9,2.7v0.8h-5.7c0,1,0.3,1.7,0.7,2.2c0.5,0.5,1.1,0.8,2,0.8c0.9,0,1.8-0.2,2.6-0.6v1.1
		c-0.4,0.2-0.9,0.3-1.3,0.4C24.4,112.6,24,112.7,23.4,112.7z M23.1,105.2c-0.7,0-1.2,0.2-1.6,0.6c-0.4,0.4-0.6,1-0.7,1.8h4.3
		c0-0.8-0.2-1.4-0.5-1.8C24.2,105.4,23.7,105.2,23.1,105.2z"/>
	<path class="st0" d="M31.9,112.7c-1.2,0-2.1-0.4-2.8-1.1c-0.7-0.7-1-1.8-1-3.1c0-1.4,0.3-2.4,1-3.2c0.7-0.8,1.6-1.1,2.8-1.1
		c0.4,0,0.8,0,1.2,0.1c0.4,0.1,0.7,0.2,0.9,0.3l-0.4,1.1c-0.3-0.1-0.6-0.2-0.9-0.3c-0.3-0.1-0.6-0.1-0.9-0.1c-1.7,0-2.5,1.1-2.5,3.2
		c0,1,0.2,1.8,0.6,2.3c0.4,0.5,1,0.8,1.8,0.8c0.7,0,1.4-0.1,2.1-0.4v1.1C33.4,112.5,32.7,112.7,31.9,112.7z"/>
	<path class="st0" d="M39.7,104.1c0.4,0,0.7,0,1,0.1l-0.2,1.2c-0.3-0.1-0.6-0.1-0.9-0.1c-0.7,0-1.2,0.3-1.7,0.8s-0.7,1.2-0.7,2v4.4
		h-1.2v-8.2h1l0.1,1.5h0.1c0.3-0.5,0.7-1,1.1-1.2C38.7,104.3,39.2,104.1,39.7,104.1z"/>
	<path class="st0" d="M45.7,112.7c-1.2,0-2.2-0.4-2.9-1.1c-0.7-0.7-1.1-1.8-1.1-3.1c0-1.3,0.3-2.4,1-3.2c0.7-0.8,1.5-1.2,2.6-1.2
		c1,0,1.9,0.3,2.5,1c0.6,0.7,0.9,1.6,0.9,2.7v0.8H43c0,1,0.3,1.7,0.7,2.2s1.1,0.8,2,0.8c0.9,0,1.8-0.2,2.6-0.6v1.1
		c-0.4,0.2-0.9,0.3-1.3,0.4C46.7,112.6,46.2,112.7,45.7,112.7z M45.3,105.2c-0.7,0-1.2,0.2-1.6,0.6c-0.4,0.4-0.6,1-0.7,1.8h4.3
		c0-0.8-0.2-1.4-0.5-1.8C46.5,105.4,46,105.2,45.3,105.2z"/>
	<path class="st0" d="M53.5,111.6c0.2,0,0.4,0,0.6,0c0.2,0,0.4-0.1,0.5-0.1v1c-0.1,0.1-0.3,0.1-0.6,0.2c-0.3,0-0.5,0.1-0.7,0.1
		c-1.6,0-2.4-0.8-2.4-2.5v-4.9h-1.2v-0.6l1.2-0.5l0.5-1.8h0.7v1.9h2.4v1h-2.4v4.9c0,0.5,0.1,0.9,0.4,1.1
		C52.8,111.5,53.1,111.6,53.5,111.6z"/>
	<path class="st0" d="M60.5,112.5v-11h1.3v9.8h4.9v1.2H60.5z"/>
	<path class="st0" d="M75.4,108.4c0,1.3-0.3,2.4-1,3.1c-0.7,0.8-1.6,1.1-2.8,1.1c-0.7,0-1.4-0.2-2-0.5c-0.6-0.3-1-0.8-1.3-1.5
		c-0.3-0.6-0.5-1.4-0.5-2.3c0-1.3,0.3-2.4,1-3.1c0.7-0.7,1.6-1.1,2.8-1.1c1.2,0,2.1,0.4,2.8,1.2C75.1,106,75.4,107.1,75.4,108.4z
		 M69.1,108.4c0,1.1,0.2,1.9,0.6,2.4c0.4,0.6,1,0.8,1.9,0.8c0.8,0,1.4-0.3,1.9-0.8c0.4-0.6,0.6-1.4,0.6-2.4c0-1-0.2-1.8-0.6-2.4
		c-0.4-0.5-1-0.8-1.9-0.8c-0.8,0-1.4,0.3-1.9,0.8S69.1,107.3,69.1,108.4z"/>
	<path class="st0" d="M83.2,111.4L83.2,111.4c-0.6,0.8-1.5,1.3-2.7,1.3c-1.1,0-1.9-0.4-2.5-1.1c-0.6-0.7-0.9-1.8-0.9-3.1
		c0-1.4,0.3-2.4,0.9-3.2c0.6-0.8,1.4-1.1,2.5-1.1c1.1,0,2,0.4,2.6,1.2h0.1l-0.1-0.6l0-0.6v-3.4h1.2v11.7h-1L83.2,111.4z M80.7,111.6
		c0.9,0,1.5-0.2,1.9-0.7c0.4-0.5,0.6-1.2,0.6-2.2v-0.3c0-1.2-0.2-2-0.6-2.5c-0.4-0.5-1-0.7-1.9-0.7c-0.7,0-1.3,0.3-1.7,0.9
		c-0.4,0.6-0.6,1.4-0.6,2.4c0,1.1,0.2,1.8,0.6,2.4S80,111.6,80.7,111.6z"/>
	<path class="st0" d="M93.8,104.3v0.8l-1.5,0.2c0.1,0.2,0.3,0.4,0.4,0.7c0.1,0.3,0.2,0.6,0.2,1c0,0.8-0.3,1.5-0.8,1.9
		c-0.6,0.5-1.3,0.7-2.3,0.7c-0.2,0-0.5,0-0.7-0.1c-0.5,0.3-0.8,0.6-0.8,1.1c0,0.2,0.1,0.4,0.3,0.5c0.2,0.1,0.5,0.2,1,0.2h1.5
		c0.9,0,1.6,0.2,2.1,0.6c0.5,0.4,0.7,0.9,0.7,1.6c0,0.9-0.4,1.6-1.1,2.1c-0.7,0.5-1.8,0.7-3.2,0.7c-1.1,0-1.9-0.2-2.5-0.6
		c-0.6-0.4-0.9-1-0.9-1.7c0-0.5,0.2-0.9,0.5-1.3c0.3-0.4,0.8-0.6,1.4-0.7c-0.2-0.1-0.4-0.2-0.5-0.4c-0.1-0.2-0.2-0.4-0.2-0.7
		c0-0.3,0.1-0.6,0.2-0.8c0.2-0.2,0.4-0.4,0.8-0.7c-0.4-0.2-0.8-0.5-1-0.9c-0.3-0.4-0.4-0.9-0.4-1.4c0-0.9,0.3-1.6,0.8-2.1
		c0.5-0.5,1.3-0.7,2.3-0.7c0.4,0,0.8,0.1,1.2,0.2H93.8z M87.2,113.9c0,0.4,0.2,0.8,0.6,1c0.4,0.2,0.9,0.3,1.6,0.3
		c1,0,1.8-0.2,2.3-0.5c0.5-0.3,0.8-0.7,0.8-1.3c0-0.4-0.1-0.8-0.4-0.9c-0.3-0.2-0.8-0.3-1.6-0.3H89c-0.6,0-1,0.1-1.3,0.4
		C87.4,113,87.2,113.4,87.2,113.9z M87.9,106.9c0,0.6,0.2,1,0.5,1.3s0.8,0.4,1.4,0.4c1.2,0,1.8-0.6,1.8-1.8c0-1.2-0.6-1.9-1.9-1.9
		c-0.6,0-1,0.2-1.4,0.5C88.1,105.8,87.9,106.3,87.9,106.9z"/>
	<path class="st0" d="M99,112.7c-1.2,0-2.2-0.4-2.9-1.1c-0.7-0.7-1.1-1.8-1.1-3.1c0-1.3,0.3-2.4,1-3.2c0.7-0.8,1.5-1.2,2.6-1.2
		c1,0,1.9,0.3,2.5,1c0.6,0.7,0.9,1.6,0.9,2.7v0.8h-5.7c0,1,0.3,1.7,0.7,2.2c0.5,0.5,1.1,0.8,2,0.8c0.9,0,1.8-0.2,2.6-0.6v1.1
		c-0.4,0.2-0.9,0.3-1.3,0.4C100,112.6,99.5,112.7,99,112.7z M98.6,105.2c-0.7,0-1.2,0.2-1.6,0.6c-0.4,0.4-0.6,1-0.7,1.8h4.3
		c0-0.8-0.2-1.4-0.5-1.8C99.8,105.4,99.3,105.2,98.6,105.2z"/>
</g>
<g>
	<path class="st0" d="M19.1,123c0,1.2-0.4,2.1-1.2,2.8c-0.8,0.6-2,1-3.5,1h-1.4v4.7h-1.4v-11.9h3.1C17.6,119.6,19.1,120.7,19.1,123z
		 M12.9,125.6h1.2c1.2,0,2.1-0.2,2.7-0.6c0.5-0.4,0.8-1,0.8-1.9c0-0.8-0.3-1.4-0.8-1.8c-0.5-0.4-1.3-0.6-2.4-0.6h-1.5V125.6z"/>
	<path class="st0" d="M29.1,131.5l-1.5-3.8h-4.8l-1.5,3.8h-1.4l4.7-12h1.2l4.7,12H29.1z M27.1,126.4l-1.4-3.7
		c-0.2-0.5-0.4-1-0.6-1.7c-0.1,0.5-0.3,1.1-0.5,1.7l-1.4,3.7H27.1z"/>
	<path class="st0" d="M35.8,131.5h-1.4v-10.7h-3.8v-1.2h8.9v1.2h-3.8V131.5z"/>
	<path class="st0" d="M48.8,131.5l-1.5-3.8h-4.8l-1.5,3.8h-1.4l4.7-12h1.2l4.7,12H48.8z M46.9,126.4l-1.4-3.7
		c-0.2-0.5-0.4-1-0.6-1.7c-0.1,0.5-0.3,1.1-0.5,1.7l-1.4,3.7H46.9z"/>
	<path class="st0" d="M57.1,125.2h4v5.8c-0.6,0.2-1.3,0.4-1.9,0.5c-0.7,0.1-1.4,0.2-2.3,0.2c-1.8,0-3.2-0.5-4.2-1.6
		c-1-1.1-1.5-2.6-1.5-4.5c0-1.2,0.2-2.3,0.7-3.3c0.5-0.9,1.2-1.6,2.1-2.1c0.9-0.5,2-0.7,3.3-0.7c1.3,0,2.5,0.2,3.6,0.7l-0.5,1.2
		c-1.1-0.5-2.1-0.7-3.1-0.7c-1.5,0-2.6,0.4-3.4,1.3c-0.8,0.9-1.2,2.1-1.2,3.6c0,1.6,0.4,2.8,1.2,3.7c0.8,0.8,1.9,1.2,3.5,1.2
		c0.8,0,1.6-0.1,2.4-0.3v-3.7h-2.7V125.2z"/>
	<path class="st0" d="M74.4,125.5c0,1.9-0.5,3.4-1.4,4.5c-1,1.1-2.3,1.6-4,1.6c-1.8,0-3.1-0.5-4.1-1.6c-1-1.1-1.4-2.6-1.4-4.5
		c0-1.9,0.5-3.4,1.4-4.5c1-1.1,2.3-1.6,4.1-1.6c1.7,0,3,0.5,4,1.6C73.9,122.1,74.4,123.6,74.4,125.5z M64.9,125.5
		c0,1.6,0.3,2.8,1,3.7c0.7,0.8,1.7,1.3,3,1.3c1.3,0,2.3-0.4,3-1.2c0.7-0.8,1-2.1,1-3.7c0-1.6-0.3-2.8-1-3.6c-0.7-0.8-1.7-1.2-3-1.2
		c-1.3,0-2.3,0.4-3,1.2C65.2,122.7,64.9,123.9,64.9,125.5z"/>
	<path class="st0" d="M86.4,131.5h-1.6l-6.5-10h-0.1c0.1,1.2,0.1,2.2,0.1,3.2v6.8H77v-11.9h1.6l6.5,10h0.1c0-0.1,0-0.6-0.1-1.4
		c0-0.8-0.1-1.4,0-1.7v-6.8h1.3V131.5z"/>
	<path class="st0" d="M89.6,131.5v-11.9H91v11.9H89.6z"/>
	<path class="st0" d="M101.8,131.5l-1.5-3.8h-4.8l-1.5,3.8h-1.4l4.7-12h1.2l4.7,12H101.8z M99.8,126.4l-1.4-3.7
		c-0.2-0.5-0.4-1-0.6-1.7c-0.1,0.5-0.3,1.1-0.5,1.7l-1.4,3.7H99.8z"/>
</g>
</svg>
