<?xml version="1.0" encoding="utf-8"?>
<!-- Generator: Adobe Illustrator 22.0.1, SVG Export Plug-In . SVG Version: 6.00 Build 0)  -->
<svg version="1.1" id="Layer_1" xmlns="http://www.w3.org/2000/svg" xmlns:xlink="http://www.w3.org/1999/xlink" x="0px" y="0px"
	 viewBox="0 0 116.7 101.7" style="enable-background:new 0 0 116.7 101.7;" xml:space="preserve">
<style type="text/css">
	.st0{fill:#FDFFFD;}
	.st1{fill:#F9F9F9;}
</style>
<g>
	<path class="st0" d="M56.5,6.4c0.5-0.3,1-0.7,1.5-1c0.4,0.2,1,0.7,1.4,0.9C58.9,6.7,58.5,7,58,7.4C57.7,7.1,56.9,6.6,56.5,6.4z"/>
	<path class="st0" d="M34.6,11.1c0.6-0.4,1.2-0.9,1.8-1.3c0.2,0.3,0.5,1,0.7,1.3c-0.2,0.3-0.5,1-0.7,1.3
		C35.8,12,35.2,11.6,34.6,11.1z"/>
	<path class="st0" d="M27.9,52c9.9-13.5,20-26.8,29.8-40.4C71,29.9,84.6,48,98,66.2c1.7,2.5,3.8,4.7,5.2,7.4c-2-1.7-3.3-4-4.9-6.1
		c-10-13.6-20-27.3-30.3-40.8C78.1,42,88.4,57.2,98.6,72.5c-5.1,0-10.3,0-15.4,0c0.5-7.8-1.4-15.8-6.1-22.1
		c-4.2-5.8-11-10-18.3-10.3c-7.2-0.4-14.1,3.1-18.7,8.5c-5.7,6.5-8.2,15.4-7.6,24c-5.1,0-10.3,0-15.4,0c10.2-15.3,20.6-30.6,30.8-46
		C37.4,40.1,27.3,53.9,17,67.7c-1.6,2-2.8,4.3-4.9,5.9C17.1,66.2,22.7,59.2,27.9,52z"/>
	<path class="st0" d="M67.3,14.6c0.5-0.5,0.9-1,1.4-1.4c0.5,0.4,0.9,0.9,1.4,1.4c-0.5,0.4-1,0.9-1.4,1.4
		C68.2,15.5,67.8,15.1,67.3,14.6z"/>
	<path class="st0" d="M44.7,15.9c0.4-0.3,1.2-0.8,1.5-1.1c0.5,0.4,0.9,0.7,1.4,1.1c-0.3,0.2-1,0.7-1.4,0.9
		C45.8,16.6,45.2,16.2,44.7,15.9z"/>
	<path class="st0" d="M37.8,22.9c0.4,1.1,0.5,2.4,1.2,3.4c1,0.7,2.2,1,3.3,1.5c-1.1,0.5-2.3,0.8-3.3,1.5c-0.8,0.9-0.9,2.2-1.3,3.3
		c-0.3-1.1-0.6-2.2-0.9-3.3c-1.2-0.6-2.4-1.1-3.7-1.6c1.2-0.5,2.5-0.8,3.5-1.7C37.2,25,37.5,24,37.8,22.9z"/>
	<path class="st0" d="M77.2,26c0.5-1,0.7-2.1,1.1-3.2c0,2.8,2.1,4.3,4.6,4.9c-2.5,0.5-4.6,2-4.7,4.7c-0.1-2.7-2.1-4.3-4.6-4.8
		C74.9,27.3,76.2,26.9,77.2,26z"/>
	<path class="st0" d="M86.5,37.9c0.5-0.6,1.1-1.2,1.6-1.8c0.3,0.6,0.5,1.2,0.8,1.9c-0.3,0.3-0.5,0.7-0.8,1
		C87.7,38.7,86.9,38.2,86.5,37.9z"/>
	<path class="st0" d="M27.8,36.4c0.6,0.5,1.3,0.9,1.9,1.4c-0.4,0.3-1.3,0.9-1.8,1.2c-0.2-0.2-0.6-0.7-0.8-0.9
		C27.4,37.5,27.6,37,27.8,36.4z"/>
	<path class="st0" d="M57.5,41.8c0.7,3.5,0.3,7.2,0.2,10.8C57.1,49,57.4,45.3,57.5,41.8z"/>
	<path class="st0" d="M47.6,44.5c2.7,3.4,4.2,7.6,6,11.5C51,52.5,49.5,48.4,47.6,44.5z"/>
	<path class="st0" d="M23.4,49.6c0.5-0.7,1.1-1.4,1.6-2.1c0.4,0.7,0.9,1.4,1.3,2C25.3,49.8,24.3,49.8,23.4,49.6z"/>
	<path class="st0" d="M89.6,49.2c0.6-0.4,1.1-0.8,1.7-1.1c0.5,0.4,0.9,0.8,1.4,1.1c-0.4,0.2-1.1,0.6-1.4,0.8
		C90.7,49.7,90.1,49.5,89.6,49.2z"/>
	<path class="st0" d="M46.2,53c1.7,0.9,3.1,2.2,4,3.9C48.7,55.8,47.4,54.5,46.2,53z"/>
	<path class="st0" d="M66.1,56.5c1-1.4,2.2-2.7,3.7-3.5C68.8,54.4,67.7,55.7,66.1,56.5z"/>
	<path class="st0" d="M38.5,53.6c2.7,1.1,4.9,3,7.3,4.5c1.8,1.2,3.7,2.2,5.1,3.9C46.6,59.4,42.3,56.7,38.5,53.6z"/>
	<path class="st0" d="M64.4,61.8c3.9-3,8.1-5.8,12.4-8.2c-1.4,1.7-3.3,2.7-5.1,3.9C69.4,58.9,67.1,60.8,64.4,61.8z"/>
	<path class="st0" d="M57,59.6c0.3-1.6,0.8-3.2,1.4-4.7c1.4,3.7,3.6,7,4.8,10.8c-0.7,2.9-3,5.1-5.8,6c-3.7-1.8-4.5-6-5-9.7
		c0.3,0.3,1,1,1.3,1.4c0.6-2.1,1.3-4.2,1.9-6.4C56,57.8,56.5,58.7,57,59.6z"/>
	<path class="st0" d="M64.8,69.1c0.3,0.8,0.6,1.6,0.9,2.4c-1.5,0.8-3,1.8-4.5,2.8c1.5,0.7,3,1.4,4.5,2.1c-0.6,1.1-1.1,2.2-1.6,3.4
		c-2.1-1.3-4.2-2.5-6.4-3.7c-2.2,1.2-4.3,2.4-6.4,3.7c-0.5-1.2-1.1-2.2-1.6-3.3c1.6-0.7,3.1-1.5,4.7-2.2c-1.6-0.9-3.2-1.9-4.8-2.8
		c0.5-0.6,0.8-1.7,1.7-1.8c2.2,0.8,4.3,2,6.5,3C60.1,71.5,62.5,70.4,64.8,69.1z"/>
	<path class="st0" d="M41.4,72.3c2-1.4,4.3-2.3,6.6-2.9C46.1,70.9,43.7,71.7,41.4,72.3z"/>
	<path class="st0" d="M67.6,69.5c2.3,0.6,4.6,1.4,6.5,2.9C71.8,71.7,69.5,70.9,67.6,69.5z"/>
</g>
<g>
	<path class="st1" d="M7,98.5V87.9h2.3v8.8h4.3v1.9H7z"/>
	<path class="st1" d="M20.4,98.5L20,97.4h-0.1c-0.4,0.5-0.8,0.8-1.2,1c-0.4,0.2-0.9,0.3-1.5,0.3c-0.8,0-1.4-0.2-1.8-0.7
		c-0.4-0.4-0.7-1.1-0.7-1.9c0-0.9,0.3-1.5,0.9-1.9c0.6-0.4,1.5-0.6,2.7-0.7l1.4,0v-0.4c0-0.8-0.4-1.2-1.3-1.2
		c-0.7,0-1.4,0.2-2.3,0.6l-0.7-1.5c0.9-0.5,2-0.7,3.1-0.7c1.1,0,1.9,0.2,2.5,0.7s0.9,1.2,0.9,2.2v5.4H20.4z M19.7,94.7l-0.9,0
		c-0.6,0-1.1,0.1-1.4,0.3c-0.3,0.2-0.5,0.5-0.5,1c0,0.6,0.4,0.9,1.1,0.9c0.5,0,0.9-0.1,1.2-0.4c0.3-0.3,0.5-0.7,0.5-1.2V94.7z"/>
	<path class="st1" d="M29.9,96.1c0,0.8-0.3,1.5-0.9,1.9c-0.6,0.4-1.4,0.7-2.6,0.7c-0.6,0-1.1,0-1.5-0.1c-0.4-0.1-0.8-0.2-1.2-0.4
		v-1.8c0.4,0.2,0.9,0.4,1.4,0.5c0.5,0.1,1,0.2,1.4,0.2c0.8,0,1.2-0.2,1.2-0.7c0-0.2-0.1-0.3-0.2-0.4c-0.1-0.1-0.3-0.2-0.6-0.4
		c-0.3-0.1-0.6-0.3-1-0.5c-0.6-0.3-1.1-0.5-1.4-0.7c-0.3-0.2-0.5-0.5-0.6-0.8c-0.1-0.3-0.2-0.6-0.2-1.1c0-0.7,0.3-1.3,0.8-1.7
		c0.6-0.4,1.4-0.6,2.4-0.6c1,0,1.9,0.2,2.9,0.6l-0.7,1.6c-0.4-0.2-0.8-0.3-1.1-0.4c-0.4-0.1-0.7-0.2-1.1-0.2c-0.7,0-1,0.2-1,0.5
		c0,0.2,0.1,0.4,0.3,0.5s0.7,0.4,1.4,0.6c0.6,0.3,1.1,0.5,1.4,0.7c0.3,0.2,0.5,0.5,0.7,0.8C29.8,95.3,29.9,95.7,29.9,96.1z"/>
	<path class="st1" d="M40.2,98.5l-2.6-8.4h-0.1c0.1,1.7,0.1,2.8,0.1,3.4v5h-2V87.9h3.1l2.5,8.1h0l2.7-8.1h3.1v10.6H45v-5
		c0-0.2,0-0.5,0-0.8c0-0.3,0-1.1,0.1-2.5H45l-2.7,8.3H40.2z"/>
	<path class="st1" d="M54.7,98.5l-0.4-1.1h-0.1c-0.4,0.5-0.8,0.8-1.2,1c-0.4,0.2-0.9,0.3-1.5,0.3c-0.8,0-1.4-0.2-1.8-0.7
		c-0.4-0.4-0.7-1.1-0.7-1.9c0-0.9,0.3-1.5,0.9-1.9c0.6-0.4,1.5-0.6,2.7-0.7l1.4,0v-0.4c0-0.8-0.4-1.2-1.3-1.2
		c-0.7,0-1.4,0.2-2.3,0.6l-0.7-1.5c0.9-0.5,2-0.7,3.1-0.7c1.1,0,1.9,0.2,2.5,0.7s0.9,1.2,0.9,2.2v5.4H54.7z M54.1,94.7l-0.9,0
		c-0.6,0-1.1,0.1-1.4,0.3c-0.3,0.2-0.5,0.5-0.5,1c0,0.6,0.4,0.9,1.1,0.9c0.5,0,0.9-0.1,1.2-0.4c0.3-0.3,0.5-0.7,0.5-1.2V94.7z"/>
	<path class="st1" d="M63.1,90.2c0.3,0,0.6,0,0.8,0.1l-0.2,2.1c-0.2,0-0.4-0.1-0.7-0.1c-0.7,0-1.3,0.2-1.7,0.5
		c-0.4,0.4-0.6,0.9-0.6,1.5v4.1h-2.2v-8.1h1.7l0.3,1.4h0.1c0.3-0.5,0.6-0.8,1-1.1C62.1,90.4,62.6,90.2,63.1,90.2z"/>
	<path class="st1" d="M70.5,98.5l-0.4-1.1H70c-0.4,0.5-0.8,0.8-1.2,1c-0.4,0.2-0.9,0.3-1.5,0.3c-0.8,0-1.4-0.2-1.8-0.7
		c-0.4-0.4-0.7-1.1-0.7-1.9c0-0.9,0.3-1.5,0.9-1.9c0.6-0.4,1.5-0.6,2.7-0.7l1.4,0v-0.4c0-0.8-0.4-1.2-1.3-1.2
		c-0.7,0-1.4,0.2-2.3,0.6l-0.7-1.5c0.9-0.5,2-0.7,3.1-0.7c1.1,0,1.9,0.2,2.5,0.7c0.6,0.5,0.9,1.2,0.9,2.2v5.4H70.5z M69.9,94.7
		l-0.9,0c-0.6,0-1.1,0.1-1.4,0.3c-0.3,0.2-0.5,0.5-0.5,1c0,0.6,0.4,0.9,1.1,0.9c0.5,0,0.9-0.1,1.2-0.4c0.3-0.3,0.5-0.7,0.5-1.2V94.7
		z"/>
	<path class="st1" d="M76.3,98.5l-3.1-8.1h2.3l1.6,4.6c0.2,0.6,0.3,1.1,0.3,1.7h0c0-0.5,0.1-1,0.3-1.7l1.6-4.6h2.3l-3.1,8.1H76.3z"
		/>
	<path class="st1" d="M82.7,88.3c0-0.7,0.4-1.1,1.2-1.1c0.8,0,1.2,0.4,1.2,1.1c0,0.3-0.1,0.6-0.3,0.8c-0.2,0.2-0.5,0.3-0.9,0.3
		C83.1,89.4,82.7,89,82.7,88.3z M85.1,98.5h-2.2v-8.1h2.2V98.5z"/>
	<path class="st1" d="M89.6,98.5h-2.2V87.2h2.2V98.5z"/>
	<path class="st1" d="M94.2,98.5h-2.2V87.2h2.2V98.5z"/>
	<path class="st1" d="M101.7,98.5l-0.4-1.1h-0.1c-0.4,0.5-0.8,0.8-1.2,1c-0.4,0.2-0.9,0.3-1.5,0.3c-0.8,0-1.4-0.2-1.8-0.7
		c-0.4-0.4-0.7-1.1-0.7-1.9c0-0.9,0.3-1.5,0.9-1.9c0.6-0.4,1.5-0.6,2.7-0.7l1.4,0v-0.4c0-0.8-0.4-1.2-1.3-1.2
		c-0.7,0-1.4,0.2-2.3,0.6l-0.7-1.5c0.9-0.5,2-0.7,3.1-0.7c1.1,0,1.9,0.2,2.5,0.7c0.6,0.5,0.9,1.2,0.9,2.2v5.4H101.7z M101,94.7
		l-0.9,0c-0.6,0-1.1,0.1-1.4,0.3c-0.3,0.2-0.5,0.5-0.5,1c0,0.6,0.4,0.9,1.1,0.9c0.5,0,0.9-0.1,1.2-0.4c0.3-0.3,0.5-0.7,0.5-1.2V94.7
		z"/>
	<path class="st1" d="M111.2,96.1c0,0.8-0.3,1.5-0.9,1.9s-1.4,0.7-2.6,0.7c-0.6,0-1.1,0-1.5-0.1c-0.4-0.1-0.8-0.2-1.2-0.4v-1.8
		c0.4,0.2,0.9,0.4,1.4,0.5c0.5,0.1,1,0.2,1.4,0.2c0.8,0,1.2-0.2,1.2-0.7c0-0.2-0.1-0.3-0.2-0.4c-0.1-0.1-0.3-0.2-0.6-0.4
		c-0.3-0.1-0.6-0.3-1-0.5c-0.6-0.3-1.1-0.5-1.4-0.7c-0.3-0.2-0.5-0.5-0.6-0.8c-0.1-0.3-0.2-0.6-0.2-1.1c0-0.7,0.3-1.3,0.8-1.7
		c0.6-0.4,1.4-0.6,2.4-0.6c1,0,1.9,0.2,2.9,0.6l-0.7,1.6c-0.4-0.2-0.8-0.3-1.1-0.4c-0.4-0.1-0.7-0.2-1.1-0.2c-0.7,0-1,0.2-1,0.5
		c0,0.2,0.1,0.4,0.3,0.5c0.2,0.1,0.7,0.4,1.4,0.6c0.6,0.3,1.1,0.5,1.4,0.7c0.3,0.2,0.5,0.5,0.7,0.8
		C111.1,95.3,111.2,95.7,111.2,96.1z"/>
</g>
</svg>
