<?xml version="1.0" encoding="utf-8"?>
<!-- Generator: Adobe Illustrator 22.0.1, SVG Export Plug-In . SVG Version: 6.00 Build 0)  -->
<svg version="1.1" id="Layer_1" xmlns="http://www.w3.org/2000/svg" xmlns:xlink="http://www.w3.org/1999/xlink" x="0px" y="0px"
	 viewBox="0 0 2500 2500" style="enable-background:new 0 0 2500 2500;" xml:space="preserve">
<style type="text/css">
	.st0{fill:url(#SVGID_1_);}
	.st1{fill:url(#SVGID_2_);}
	.st2{fill:url(#SVGID_3_);}
</style>
<linearGradient id="SVGID_1_" gradientUnits="userSpaceOnUse" x1="209.8025" y1="209.7996" x2="2290.2197" y2="2290.2166" gradientTransform="matrix(1 0 0 -1 0 2500)">
	<stop  offset="0" style="stop-color:#FFD600"/>
	<stop  offset="0.5" style="stop-color:#FF0100"/>
	<stop  offset="1" style="stop-color:#D800B9"/>
</linearGradient>
<path class="st0" d="M2492.5,734.6c-6.1-133.1-27.2-223.9-58.1-303.4c-31.4-83.4-80.6-159-144.2-221.4
	c-62.4-63.6-138-112.8-221.4-144.2c-79.5-30.9-170.4-52-303.4-58C1632.1,1.4,1589.5,0,1250,0S867.9,1.4,734.6,7.5
	c-133.1,6.1-223.9,27.2-303.4,58.1c-83.4,31.4-159,80.6-221.4,144.2C146.2,272.2,97,347.8,65.6,431.2c-30.9,79.5-52,170.4-58,303.4
	C1.4,867.9,0,910.5,0,1250c0,339.5,1.4,382.1,7.6,515.4c6.1,133,27.2,223.9,58.1,303.4c31.4,83.4,80.6,159,144.2,221.4
	c62.4,63.6,138,112.8,221.4,144.2c79.5,30.9,170.4,52,303.4,58.1c133.3,6.1,175.9,7.5,515.4,7.5s382.1-1.4,515.4-7.5
	c133.1-6.1,223.9-27.2,303.4-58.1c167.9-64.9,300.6-197.7,365.6-365.6c30.9-79.5,52-170.4,58.1-303.4c6.1-133.3,7.5-175.9,7.5-515.4
	C2500,910.5,2498.6,867.9,2492.5,734.6z M2267.5,1755.1c-5.6,121.9-25.9,188.1-43,232.1c-42.1,109-128.2,195.2-237.2,237.2
	c-44,17.1-110.2,37.5-232.1,43c-131.8,6-171.3,7.3-505.1,7.3c-333.8,0-373.3-1.3-505.1-7.3c-121.9-5.6-188-25.9-232.1-43
	c-54.3-20-103.4-52-143.7-93.5c-41.5-40.3-73.5-89.4-93.5-143.7c-17.1-44-37.5-110.2-43-232.1c-6-131.8-7.3-171.3-7.3-505.1
	c0-333.8,1.3-373.3,7.3-505.1c5.6-121.9,25.9-188.1,43-232.1c20-54.3,52-103.4,93.5-143.7c40.3-41.5,89.4-73.5,143.7-93.5
	c44-17.1,110.2-37.5,232.1-43c131.8-6,171.3-7.3,505.1-7.3h0c333.8,0,373.3,1.3,505.1,7.3c121.9,5.6,188,25.9,232.1,43
	c54.3,20,103.4,52,143.7,93.5c41.5,40.3,73.5,89.4,93.5,143.7c17.1,44,37.5,110.2,43,232.1c6,131.8,7.3,171.3,7.3,505.1
	C2274.8,1583.8,2273.5,1623.3,2267.5,1755.1z"/>
<linearGradient id="SVGID_2_" gradientUnits="userSpaceOnUse" x1="796.1113" y1="796.1078" x2="1703.8864" y2="1703.8827" gradientTransform="matrix(1 0 0 -1 0 2500)">
	<stop  offset="0" style="stop-color:#FF6400"/>
	<stop  offset="0.5" style="stop-color:#FF0100"/>
	<stop  offset="1" style="stop-color:#FD0056"/>
</linearGradient>
<path class="st1" d="M1250,608.1c-354.5,0-641.9,287.4-641.9,641.9s287.4,641.9,641.9,641.9c354.5,0,641.9-287.4,641.9-641.9
	S1604.5,608.1,1250,608.1z M1250,1666.7c-230.1,0-416.7-186.6-416.6-416.7c0-230.1,186.5-416.7,416.7-416.7
	c230.1,0,416.7,186.6,416.7,416.7C1666.7,1480.1,1480.1,1666.7,1250,1666.7z"/>
<linearGradient id="SVGID_3_" gradientUnits="userSpaceOnUse" x1="1811.1844" y1="1811.182" x2="2023.3237" y2="2023.3214" gradientTransform="matrix(1 0 0 -1 0 2500)">
	<stop  offset="0" style="stop-color:#F30072"/>
	<stop  offset="1" style="stop-color:#E50097"/>
</linearGradient>
<path class="st2" d="M2067.3,582.8c0,82.8-67.2,150-150,150c-82.9,0-150-67.2-150-150c0-82.9,67.2-150,150-150
	C2000.1,432.7,2067.3,499.9,2067.3,582.8z"/>
</svg>
